<?xml version="1.0" standalone="no"?>
<!DOCTYPE svg PUBLIC "-//W3C//DTD SVG 20010904//EN"
 "http://www.w3.org/TR/2001/REC-SVG-20010904/DTD/svg10.dtd">
<svg version="1.0" xmlns="http://www.w3.org/2000/svg"
 width="286.000000pt" height="284.000000pt" viewBox="0 0 286.000000 284.000000"
 preserveAspectRatio="xMidYMid meet">

<g transform="translate(0.000000,284.000000) scale(0.100000,-0.100000)"
fill="#17577D" stroke="none">
<path d="M1315 2830 c-504 -47 -942 -353 -1165 -815 -160 -332 -182 -701 -61
-1049 98 -281 293 -535 541 -705 570 -390 1286 -331 1781 146 213 206 349 451
414 743 24 113 31 364 11 480 -44 271 -145 484 -341 719 -267 321 -756 521
-1180 481z m326 -96 c481 -81 887 -421 1053 -882 95 -264 95 -600 0 -864 -112
-312 -357 -592 -653 -747 -375 -196 -791 -203 -1178 -20 -193 92 -413 278
-530 450 -108 157 -187 349 -218 524 -20 115 -20 333 0 447 84 485 460 907
936 1052 185 56 405 71 590 40z"/>
<path d="M1316 2650 c-478 -59 -870 -358 -1046 -797 -231 -579 33 -1250 605
-1537 190 -95 345 -131 560 -130 212 0 357 34 536 123 363 182 609 501 686
888 23 121 23 339 -1 453 -94 448 -407 797 -849 944 -150 50 -354 73 -491 56z
m310 -95 c478 -84 867 -470 949 -943 19 -108 19 -286 0 -393 -86 -493 -528
-897 -1037 -949 -677 -68 -1296 514 -1265 1190 6 133 24 224 66 340 117 319
393 590 726 709 162 58 384 76 561 46z"/>
<path d="M1326 2359 c-99 -10 -182 -34 -194 -56 -12 -21 -4 -51 17 -57 9 -3
43 1 76 10 33 8 116 17 185 20 115 5 133 3 225 -22 55 -15 118 -28 140 -28 36
-1 40 1 43 26 3 23 -3 30 -35 47 -97 49 -305 77 -457 60z"/>
<path d="M983 2193 c-10 -3 -13 -47 -13 -167 0 -187 -10 -165 113 -241 43 -26
76 -53 74 -59 -2 -6 -25 -22 -52 -36 -160 -82 -332 39 -311 218 7 58 -3 82
-34 82 -37 0 -55 -38 -54 -114 1 -117 60 -213 162 -263 77 -38 193 -40 262 -4
107 55 170 150 178 267 4 62 1 79 -23 133 -38 84 -105 144 -192 171 -65 20
-87 23 -110 13z m139 -122 c66 -42 101 -106 102 -187 1 -34 -2 -66 -6 -70 -4
-4 -44 15 -88 42 l-80 49 0 97 c0 112 2 114 72 69z"/>
<path d="M2057 2093 c-17 -16 -4 -56 33 -98 381 -440 247 -1099 -275 -1356
-135 -66 -194 -81 -355 -86 -114 -4 -149 -2 -225 16 -317 75 -581 339 -656
656 -17 75 -20 111 -17 215 4 107 10 139 37 222 26 78 30 100 21 117 -24 45
-65 19 -94 -59 -122 -336 -34 -713 225 -971 271 -269 659 -358 1009 -229 535
195 782 791 541 1306 -68 145 -169 274 -213 274 -14 0 -28 -3 -31 -7z"/>
<path d="M1742 2065 c-44 -19 -53 -49 -59 -196 l-6 -126 -81 -6 c-86 -5 -130
-19 -142 -46 -5 -9 -10 -56 -14 -106 l-5 -90 -126 -5 c-91 -4 -131 -9 -144
-20 -30 -25 -45 -76 -45 -155 l0 -75 -65 0 c-120 0 -155 -32 -155 -141 l0 -49
-45 0 c-40 0 -45 -3 -51 -27 -9 -33 15 -53 63 -53 26 0 33 -4 33 -19 0 -48 73
-56 78 -8 l3 27 460 0 c442 0 459 -1 459 -19 0 -48 73 -56 78 -8 3 22 8 27 32
27 26 0 60 22 60 39 0 18 -28 40 -55 43 l-30 3 -5 483 -5 484 -29 23 c-47 37
-142 47 -204 20z m142 -81 c14 -14 16 -71 16 -475 l0 -460 -67 3 -68 3 -3 455
c-2 454 -2 455 19 473 26 21 82 22 103 1z m-204 -634 l0 -300 -80 0 -80 0 0
284 c0 156 3 291 6 300 5 13 22 16 80 16 l74 0 0 -300z m-245 -120 l0 -175
-95 -3 c-152 -5 -140 -20 -140 171 0 116 4 167 12 175 9 9 45 12 118 10 l105
-3 0 -175z m-315 -125 l0 -56 -67 3 -68 3 -3 32 c-6 58 11 73 78 73 l60 0 0
-55z"/>
<path d="M1094 880 c-88 -36 -59 -170 37 -170 32 0 79 53 79 89 0 57 -65 102
-116 81z"/>
<path d="M1405 878 c-33 -17 -45 -40 -45 -80 0 -90 114 -118 155 -39 20 39 11
74 -27 106 -32 27 -52 30 -83 13z"/>
<path d="M1720 877 c-55 -28 -64 -94 -20 -139 27 -26 36 -30 68 -25 46 8 72
38 72 86 0 62 -67 106 -120 78z"/>
</g>
</svg>
